<svg display="none">
  <symbol id="step1" width="24" height="24" viewBox="0 0 24 24" fill="none" xmlns="http://www.w3.org/2000/svg">
    <circle cx="12" cy="12" r="12" fill="#EF483E"/>
    <path d="M13.3267 18V6.8H11.5187C11.4547 7.22667 11.3214 7.584 11.1187 7.872C10.916 8.16 10.6654 8.39467 10.3667 8.576C10.0787 8.74667 9.74802 8.86933 9.37469 8.944C9.01202 9.008 8.63335 9.03467 8.23869 9.024V10.736H11.0547V18H13.3267Z" fill="white"/>
  </symbol>
  <symbol id="step2" width="24" height="24" viewBox="0 0 24 24" fill="none" xmlns="http://www.w3.org/2000/svg">
    <circle cx="12" cy="12" r="12" fill="#EF483E"/>
    <path d="M7.64669 11.104H9.82269C9.82269 10.8053 9.84935 10.5067 9.90269 10.208C9.96669 9.89867 10.068 9.62133 10.2067 9.376C10.3454 9.12 10.5267 8.91733 10.7507 8.768C10.9854 8.608 11.268 8.528 11.5987 8.528C12.0894 8.528 12.4894 8.68267 12.7987 8.992C13.1187 9.29067 13.2787 9.712 13.2787 10.256C13.2787 10.5973 13.1987 10.9013 13.0387 11.168C12.8894 11.4347 12.6974 11.6747 12.4627 11.888C12.2387 12.1013 11.988 12.2987 11.7107 12.48C11.4334 12.6507 11.172 12.8213 10.9267 12.992C10.4467 13.3227 9.98802 13.648 9.55069 13.968C9.12402 14.288 8.75069 14.64 8.43069 15.024C8.11069 15.3973 7.85469 15.824 7.66269 16.304C7.48135 16.784 7.39069 17.3493 7.39069 18H15.6147V16.048H10.3187C10.596 15.664 10.916 15.328 11.2787 15.04C11.6414 14.752 12.0147 14.4853 12.3987 14.24C12.7827 13.984 13.1614 13.728 13.5347 13.472C13.9187 13.216 14.26 12.9333 14.5587 12.624C14.8574 12.304 15.0974 11.9413 15.2787 11.536C15.46 11.1307 15.5507 10.6453 15.5507 10.08C15.5507 9.536 15.444 9.04533 15.2307 8.608C15.028 8.17067 14.7507 7.80267 14.3987 7.504C14.0467 7.20533 13.636 6.976 13.1667 6.816C12.708 6.656 12.2227 6.576 11.7107 6.576C11.0387 6.576 10.4414 6.69333 9.91869 6.928C9.40669 7.152 8.98002 7.472 8.63869 7.888C8.29735 8.29333 8.04135 8.77333 7.87069 9.328C7.70002 9.872 7.62535 10.464 7.64669 11.104Z" fill="white"/>
  </symbol>
  <symbol id="step3" width="24" height="24" viewBox="0 0 24 24" fill="none" xmlns="http://www.w3.org/2000/svg">
    <circle cx="12" cy="12" r="12" fill="#EF483E"/>
    <path d="M10.7027 11.328V12.928C10.98 12.928 11.268 12.9387 11.5667 12.96C11.876 12.9707 12.1587 13.0293 12.4147 13.136C12.6707 13.232 12.8787 13.392 13.0387 13.616C13.2094 13.84 13.2947 14.1653 13.2947 14.592C13.2947 15.136 13.1187 15.568 12.7667 15.888C12.4147 16.1973 11.9827 16.352 11.4707 16.352C11.14 16.352 10.852 16.2933 10.6067 16.176C10.372 16.0587 10.1747 15.904 10.0147 15.712C9.85469 15.5093 9.73202 15.2747 9.64669 15.008C9.56135 14.7307 9.51335 14.4427 9.50269 14.144H7.34269C7.33202 14.7947 7.42269 15.3707 7.61469 15.872C7.81735 16.3733 8.10002 16.8 8.46269 17.152C8.82535 17.4933 9.26269 17.7547 9.77469 17.936C10.2974 18.1173 10.8734 18.208 11.5027 18.208C12.0467 18.208 12.5694 18.128 13.0707 17.968C13.572 17.808 14.0147 17.5733 14.3987 17.264C14.7827 16.9547 15.0867 16.5707 15.3107 16.112C15.5454 15.6533 15.6627 15.1307 15.6627 14.544C15.6627 13.904 15.4867 13.3547 15.1347 12.896C14.7827 12.4373 14.2974 12.1387 13.6787 12V11.968C14.2014 11.8187 14.5907 11.536 14.8467 11.12C15.1134 10.704 15.2467 10.224 15.2467 9.68C15.2467 9.17867 15.1347 8.736 14.9107 8.352C14.6867 7.968 14.3934 7.64267 14.0307 7.376C13.6787 7.10933 13.2787 6.912 12.8307 6.784C12.3827 6.64533 11.9347 6.576 11.4867 6.576C10.9107 6.576 10.388 6.672 9.91869 6.864C9.44935 7.04533 9.04402 7.30667 8.70269 7.648C8.37202 7.98933 8.11069 8.4 7.91869 8.88C7.73735 9.34933 7.63602 9.872 7.61469 10.448H9.77469C9.76402 9.872 9.90269 9.39733 10.1907 9.024C10.4894 8.64 10.9267 8.448 11.5027 8.448C11.9187 8.448 12.2867 8.576 12.6067 8.832C12.9267 9.088 13.0867 9.456 13.0867 9.936C13.0867 10.256 13.0067 10.512 12.8467 10.704C12.6974 10.896 12.5 11.0453 12.2547 11.152C12.02 11.248 11.764 11.3067 11.4867 11.328C11.2094 11.3493 10.948 11.3493 10.7027 11.328Z" fill="white"/>
  </symbol>
  <symbol id="step4" width="24" height="24" viewBox="0 0 24 24" fill="none" xmlns="http://www.w3.org/2000/svg">
    <circle cx="12" cy="12" r="12" fill="#EF483E"/>
    <path d="M12.0467 9.648V13.536H9.10269L11.9987 9.648H12.0467ZM12.0467 15.408V18H14.2067V15.408H15.6947V13.536H14.2067V6.8H12.1747L7.31069 13.328V15.408H12.0467Z" fill="white"/>
  </symbol>
  <symbol id="checkbox-off" width="24" height="24" viewBox="0 0 24 24" fill="none" xmlns="http://www.w3.org/2000/svg">
    <path d="M1 1V23H23V1H1Z" stroke="white" stroke-width="2"/>
  </symbol>
  <symbol id="checkbox-on" width="24" height="24" viewBox="0 0 24 24" fill="none" xmlns="http://www.w3.org/2000/svg">
    <path d="M1 23H23V1H1V23Z" fill="#EF483E" stroke="#EF483E" stroke-width="2"/>
    <path fill-rule="evenodd" clip-rule="evenodd" d="M11 13L16.4917 8L18 9.45455L11 16L7 11.9376L8.50832 10.4831L11 13Z" fill="white"/>
  </symbol>
  <symbol id="circle" width="16" height="16" viewBox="0 0 16 16" fill="none" xmlns="http://www.w3.org/2000/svg">
    <path fill-rule="evenodd" clip-rule="evenodd" d="M16 8C16 12.4183 12.4183 16 8 16C3.58172 16 0 12.4183 0 8C0 3.58172 3.58172 0 8 0C12.4183 0 16 3.58172 16 8ZM12 8C12 10.2091 10.2091 12 8 12C5.79086 12 4 10.2091 4 8C4 5.79086 5.79086 4 8 4C10.2091 4 12 5.79086 12 8Z" fill="white"/>
  </symbol>
    <symbol id="circle-red" width="16" height="16" viewBox="0 0 16 16" fill="none" xmlns="http://www.w3.org/2000/svg">
    <path fill-rule="evenodd" clip-rule="evenodd" d="M16 8C16 12.4183 12.4183 16 8 16C3.58172 16 0 12.4183 0 8C0 3.58172 3.58172 0 8 0C12.4183 0 16 3.58172 16 8ZM12 8C12 10.2091 10.2091 12 8 12C5.79086 12 4 10.2091 4 8C4 5.79086 5.79086 4 8 4C10.2091 4 12 5.79086 12 8Z" fill="#EF483E"/>
  </symbol>
  <symbol id="arrow" width="8" height="5" viewBox="0 0 8 5" fill="none" xmlns="http://www.w3.org/2000/svg">
    <path fill-rule="evenodd" clip-rule="evenodd" d="M1 0L4 3L7 0L8 1L4 5L0 1L1 0Z" fill="black"/>
  </symbol>
</svg>
